<?xml version="1.0" encoding="UTF-8" standalone="no"?>
<!-- Generator: Adobe Illustrator 19.0.0, SVG Export Plug-In . SVG Version: 6.00 Build 0)  -->

<svg
   xmlns:dc="http://purl.org/dc/elements/1.1/"
   xmlns:cc="http://creativecommons.org/ns#"
   xmlns:rdf="http://www.w3.org/1999/02/22-rdf-syntax-ns#"
   xmlns:svg="http://www.w3.org/2000/svg"
   xmlns="http://www.w3.org/2000/svg"
   xmlns:sodipodi="http://sodipodi.sourceforge.net/DTD/sodipodi-0.dtd"
   xmlns:inkscape="http://www.inkscape.org/namespaces/inkscape"
   version="1.1"
   id="Layer_1"
   x="0px"
   y="0px"
   viewBox="0 0 512.001 512.001"
   style="enable-background:new 0 0 512.001 512.001;"
   xml:space="preserve"
   sodipodi:docname="moms_group.svg"
   inkscape:version="0.92.1 r"><metadata
     id="metadata101"><rdf:RDF><cc:Work
         rdf:about=""><dc:format>image/svg+xml</dc:format><dc:type
           rdf:resource="http://purl.org/dc/dcmitype/StillImage" /></cc:Work></rdf:RDF></metadata><defs
     id="defs99" /><sodipodi:namedview
     pagecolor="#ffffff"
     bordercolor="#666666"
     borderopacity="1"
     objecttolerance="10"
     gridtolerance="10"
     guidetolerance="10"
     inkscape:pageopacity="0"
     inkscape:pageshadow="2"
     inkscape:window-width="1366"
     inkscape:window-height="720"
     id="namedview97"
     showgrid="false"
     inkscape:zoom="1.0644511"
     inkscape:cx="256.00049"
     inkscape:cy="256.00049"
     inkscape:window-x="-2"
     inkscape:window-y="309"
     inkscape:window-maximized="1"
     inkscape:current-layer="Layer_1" /><ellipse
     style="fill:#b08d88;fill-opacity:1"
     cx="432.36"
     cy="199.891"
     rx="32.06"
     ry="28.06"
     id="ellipse2" /><path
     style="fill:#855f5f;fill-opacity:1"
     d="M424.339,199.887c0-11.768,8.299-21.81,20.04-25.976c-3.718-1.32-7.765-2.08-12.024-2.08  c-17.709,0-32.065,12.561-32.065,28.056s14.356,28.056,32.065,28.056c4.259,0,8.306-0.761,12.024-2.08  C432.638,221.698,424.339,211.656,424.339,199.887z"
     id="path4" /><path
     style="fill:#eabb8c;fill-opacity:1"
     d="M491.206,367.482l-25.941-12.97c-5.432-2.716-8.863-8.268-8.863-14.341l0.001-24.05h-48.097v24.05  c0,6.072-3.431,11.623-8.862,14.339l-25.942,12.971c-8.147,4.074-13.293,12.4-13.293,21.509v55.389H504.5v-55.388  C504.5,379.883,499.353,371.556,491.206,367.482z"
     id="path6" /><path
     style="fill:#e6eaf4;fill-opacity:1"
     d="M504.5,388.992c0-9.109-5.147-17.436-13.294-21.51l-25.941-12.97  c-1.493-0.746-2.793-1.741-3.953-2.867l-9.2,10.239c-11.071,12.319-28.442,12.319-39.513,0l-9.201-10.241  c-1.161,1.126-2.461,2.121-3.952,2.867l-25.943,12.971c-8.146,4.074-13.292,12.4-13.292,21.509v55.389H504.5V388.992z"
     id="path8" /><circle
     style="fill:#846067;fill-opacity:1"
     cx="432.36"
     cy="260.01"
     r="56.11"
     id="circle10" /><path
     style="fill:#ad8b8b;fill-opacity:1"
     d="M487.942,252.23c-3.084-22.867-20.603-41.984-43.134-46.959c-4.11-0.908-8.156-1.349-12.103-1.374  c-26.883-0.168-35.86,36.952-11.693,48.728c1.299,0.633,2.123,0.917,2.123,0.917l27.924,50.556c0,0,7.441,0.508,14.945,0.739  C481.518,293.173,490.839,273.717,487.942,252.23z"
     id="path12" /><path
     style="fill:#f3cc9d;fill-opacity:1"
     d="M432.355,332.154L432.355,332.154c-18.371,0-34.337-10.3-42.437-25.44  c-5.506-10.292-1.916-23.203,7.627-29.924c1.831-1.29,3.723-2.761,5.584-4.422c5.732-5.115,9.089-10.509,10.981-14.462  c1.621-3.386,5.356-5.298,8.994-4.371c28.303,7.212,47.551,21.953,54.487,27.924c1.843,1.587,2.904,3.923,2.717,6.348  C478.395,312.618,457.656,332.154,432.355,332.154z"
     id="path14" /><path
     style="fill:#eabb8c;fill-opacity:1"
     d="M477.582,281.451c-6.941-5.975-26.174-20.697-54.447-27.909c-3.656-0.933-7.406,0.991-9.038,4.393  c-1.435,2.991-3.806,6.803-7.325,10.693c-0.001,0.009-0.003,0.018-0.004,0.027c-1.092,1.238-2.255,2.478-3.638,3.713  c-1.785,1.592-3.58,3.034-5.356,4.261c-11.242,7.763-13.012,22.181-6.079,33.085c7.294,11.471,19.342,19.62,33.369,21.765  c-9.597-6.529-16.756-15.381-16.756-31.388v-6.194c1.821-1.344,3.654-2.685,5.497-4.329c4.455-3.976,8.345-8.574,11.464-13.525  c21.592,6.738,36.23,17.96,41.779,22.732c1.519,1.332,3.649,3.214,8.06,7.352c2.829-4.464,4.804-13.155,5.201-18.33  C480.495,285.375,479.422,283.035,477.582,281.451z"
     id="path16" /><path
     style="fill:#d7ddeb;fill-opacity:1"
     d="M499.613,374.541c3.088,4.097,4.887,9.126,4.887,14.45v55.388h-32.065v-40.391  c0-4.87,2.214-9.477,6.017-12.519L499.613,374.541z"
     id="path18" /><path
     style="fill:#846067;fill-opacity:1"
     d="M31.548,235.961v5.626c0,6.893,1.111,13.74,3.291,20.279L47.58,300.09h24.048v-88.177H55.597  C42.315,211.911,31.548,222.678,31.548,235.961z"
     id="path20" /><path
     style="fill:#ad8b8b;fill-opacity:1"
     d="M141.924,250.454l-14.182,49.636l-64.129-56.113c-8.854,0-16.032-7.178-16.032-16.032l0,0  c0-13.282,10.767-24.048,24.048-24.048h72.145v33.344C143.774,241.71,143.151,246.157,141.924,250.454z"
     id="path22" /><rect
     x="63.61"
     y="324.141"
     style="fill:#eabb8c;fill-opacity:1"
     width="48.1"
     height="48.1"
     id="rect24" /><path
     style="fill:#e6eaf4;fill-opacity:1"
     d="M150.38,354.634l-38.673-11.049l-24.046,28.65l-24.048-28.65l-38.671,11.049  C14.618,357.583,7.5,367.02,7.5,377.757v66.623h160.323v-66.623C167.823,367.02,160.705,357.583,150.38,354.634z"
     id="path26" /><path
     style="fill:#f3cc9e;fill-opacity:1"
     d="M87.661,332.154L87.661,332.154c-26.563,0-48.097-21.534-48.097-48.097l0,0  c0-10.265,4.078-20.11,11.336-27.369l7.895-7.895c3.078-3.078,7.287-4.848,11.637-4.711c25.625,0.808,48.307,6.298,60.706,18.407  c3.035,2.964,4.619,7.111,4.619,11.353v10.214C135.758,310.621,114.224,332.154,87.661,332.154z"
     id="path28" /><path
     style="fill:#eabb8c;fill-opacity:1"
     d="M63.613,284.057c0-9.247,7.766-16.597,16.994-16.009c16.183,1.032,40.196,3.737,54.928,10.824  c-0.481-3.382-1.934-13.977-4.397-16.383c-12.398-12.109-35.08-17.599-60.705-18.407h-0.001l0,0  c-4.35-0.137-8.559,1.634-11.637,4.711l-7.895,7.895c-7.259,7.259-11.337,17.103-11.337,27.369l0,0  c0,21.934,14.697,40.402,34.77,46.185c-6.681-8.244-10.722-18.707-10.722-30.153v-16.032H63.613z"
     id="path30" /><path
     style="fill:#d7ddeb;fill-opacity:1"
     d="M39.565,401.642c0-6.378-2.534-12.495-7.044-17.005l-20.635-20.635  c-2.758,3.943-4.386,8.689-4.386,13.755v66.623h32.065V401.642z"
     id="path32" /><path
     style="fill:#856068;fill-opacity:1"
     d="M256,348.186c52.445,0,99.528-21.445,114.945-29.259c3.143-1.593,4.881-5,4.299-8.475  c-2.488-14.865-9.184-59.386-15.034-138.62c-4.758-64.453-46.656-104.21-104.21-104.21s-99.451,39.757-104.21,104.21  c-5.849,79.234-12.546,123.756-15.034,138.62c-0.582,3.476,1.155,6.882,4.299,8.475C156.472,326.742,203.555,348.186,256,348.186z"
     id="path34" /><path
     style="fill:#ad8b8b;fill-opacity:1"
     d="m 374.184,319.009 c 3.143,-1.594 4.88,-5 4.299,-8.476 -2.488,-14.864 -9.184,-59.387 -15.034,-138.62 -4.758,-64.454 -46.656,-104.210999 -104.21,-104.210999 -4.033,0 -7.989,0.195 -11.861,0.581 -44.802,4.463 -51.53,67.728999 -8.468,80.875999 0.686,0.209 1.065,0.307 1.065,0.307 L 256,348.186 c 0.022,0.02 0.036,0.033 0.058,0.054 53.713,0.899 102.398,-21.258 118.126,-29.231 z"
     id="path36"
     inkscape:connector-curvature="0" /><path
     style="fill:#eabb8c;fill-opacity:1"
     d="M119.726,444.38v-51.254c0-12.699,7.494-24.201,19.11-29.331l67.529-29.825  c5.808-2.565,9.555-8.316,9.555-14.666v-35.246h80.161v35.246c0,6.349,3.747,12.1,9.555,14.666l67.529,29.825  c11.616,5.13,19.11,16.633,19.11,29.331v51.254H119.726z"
     id="path38" /><path
     style="fill:#d8a880;fill-opacity:1"
     d="M215.919,316.125c12.341,5.148,25.873,8.013,40.081,8.013c14.207,0,27.739-2.865,40.081-8.013  v-32.068H215.92L215.919,316.125L215.919,316.125z"
     id="path40" /><path
     style="fill:#19c9ff;fill-opacity:1"
     d="M373.164,363.795l-49.808-21.998c-10.358,27.15-36.569,46.471-67.357,46.471  S199,368.947,188.642,341.797l-49.808,21.998c-11.616,5.13-19.11,16.632-19.11,29.331v51.255h272.548v-51.255  C392.274,380.427,384.78,368.925,373.164,363.795z"
     id="path42" /><path
     style="fill:#f3cc9d;fill-opacity:1"
     d="M328.078,187.87c-12.872-11.194-41.771-30.989-91.342-38.484c-6.86-1.037-13.778,2.339-16.83,8.57  c-5.086,10.383-15.902,27.009-37.38,41.661c-4.263,2.908-6.687,7.855-6.687,13.015v4.55c0,42.695,32.219,79.975,74.825,82.734  c46.688,3.023,85.497-33.951,85.497-79.988v-14.063C336.161,198.976,333.276,192.391,328.078,187.87z"
     id="path44" /><path
     style="fill:#eabb8c;fill-opacity:1"
     d="M336.161,203.896c-1.231-2.027-6.254-14.435-8.084-16.026c-12.872-11.195-41.771-30.99-91.342-38.484  c-6.86-1.037-13.778,2.339-16.83,8.57c-1.226,2.503-2.867,5.42-4.834,8.536c-6.154,9.775-16.19,21.938-32.417,33.036  c-4.301,2.942-6.816,7.892-6.816,13.103v4.55c0,41.206,30.043,77.271,70.437,82.224c-13.809-14.401-22.34-33.902-22.34-55.429  v-50.397c0-8.248,6.193-15.135,14.399-15.963C257.605,175.672,312.113,187.864,336.161,203.896z"
     id="path46" /><g
     id="g52"><path
       style="fill:#09b7ff;fill-opacity:1"
       d="M131.715,368.192c-7.444,5.995-11.989,15.084-11.989,24.934v51.254h56.113v-22.103   c0-6.378-2.534-12.495-7.044-17.005L131.715,368.192z"
       id="path48" /><path
       style="fill:#09b7ff;fill-opacity:1"
       d="M380.285,368.192c7.444,5.995,11.989,15.084,11.989,24.934v51.254h-56.113v-22.103   c0-6.378,2.534-12.495,7.044-17.005L380.285,368.192z"
       id="path50" /></g><path
     d="M175.839,404.815c-4.142,0-7.5,3.358-7.5,7.5v32.064c0,4.142,3.358,7.5,7.5,7.5s7.5-3.358,7.5-7.5v-32.064  C183.339,408.173,179.981,404.815,175.839,404.815z"
     id="path54"
     style="fill:#0c0c0c;fill-opacity:1" /><path
     d="M336.161,404.815c-4.142,0-7.5,3.358-7.5,7.5v32.064c0,4.142,3.358,7.5,7.5,7.5s7.5-3.358,7.5-7.5v-32.064  C343.661,408.173,340.303,404.815,336.161,404.815z"
     id="path56"
     style="fill:#0c0c0c;fill-opacity:1" /><path
     d="M108.355,258.701c1.077,0.539,2.221,0.793,3.348,0.793c2.751,0,5.4-1.52,6.714-4.147c1.853-3.705,0.351-8.21-3.354-10.062  c-17.416-8.708-50.069-8.808-51.451-8.808c-4.141,0-7.498,3.356-7.499,7.498c-0.001,4.141,3.355,7.5,7.497,7.502  C72.048,251.482,96.533,252.79,108.355,258.701z"
     id="path58"
     style="fill:#0c0c0c;fill-opacity:1" /><path
     d="M39.564,388.783c-4.142,0-7.5,3.358-7.5,7.5v48.097c0,4.142,3.358,7.5,7.5,7.5s7.5-3.358,7.5-7.5v-48.097  C47.064,392.141,43.707,388.783,39.564,388.783z"
     id="path60"
     style="fill:#0c0c0c;fill-opacity:1" /><path
     d="m 494.06,359.57399 -30.372,-15.184 c -0.176,-0.088 -0.286,-0.266 -0.286,-0.462 v -15.265 c 12.468,-8.585 21.293,-22.15699 23.501,-38.08499 5.608,-9.691 8.563,-20.637 8.563,-31.767 0,-20.755 -9.994,-39.217 -25.419,-50.835 0.904,-3.011 1.371,-6.117 1.371,-9.286 0,-19.606 -17.749,-35.557 -39.564,-35.557 -21.815,0 -39.564,15.951 -39.564,35.557 0,3.173 0.462,6.28 1.366,9.289 -9.197,6.928 -16.449,16.296 -20.815,27.126 -1.859,-18.269 -3.795,-39.866 -5.652,-65.024 -2.45,-33.194 -14.388,-61.22601 -34.522,-81.064009 -19.981,-19.688 -46.666,-30.094 -77.169,-30.094 -30.503,0 -57.188,10.406 -77.167,30.093 C 158.197,108.85499 146.259,136.887 143.809,170.08 c -0.651,8.813 -1.311,17.166 -1.974,25.117 H 71.127001 c -26.236,0 -47.581,21.345 -47.581,47.581 v 0.447 c 0,6.11 1.444,12.229 4.177,17.694 l 3.839,7.679 v 12.245 c 0,19.406 9.563,36.81899 24.048,47.29799 v 10.832 c 0,1.389 -0.933,2.625 -2.268,3.007 l -30.963,8.847 c -13.472,3.848 -22.8810004,16.322 -22.8810004,30.333 v 62.021 c 0,4.142 3.3580004,7.5 7.5000004,7.5 4.142,0 7.5,-3.358 7.5,-7.5 v -62.021 c 0,-7.35 4.936,-13.893 12.002,-15.912 l 30.964,-8.847 c 1.117,-0.319 2.178,-0.752 3.188,-1.266 l 19.007,19.007 v 69.039 c 0,4.142 3.358,7.5 7.5,7.5 4.142,0 7.499999,-3.358 7.499999,-7.5 v -69.039 l 19.14,-19.14 c 2.558,1.255 5.107,1.985 6.975,2.519 l 7.603,2.172 c -10.303,7.326 -16.653,19.275 -16.653,32.232 v 51.254 c 0,4.142 3.358,7.5 7.5,7.5 4.142,0 7.5,-3.358 7.5,-7.5 v -51.254 c 0,-9.722 5.747,-18.542 14.641,-22.47 l 42.88,-18.939 c 13.437,26.909 40.895,44.051 71.254,44.051 30.472,0 57.838,-17.104 71.267,-44.045 l 42.867,18.933 c 8.894,3.928 14.641,12.748 14.641,22.47 v 51.254 c 0,4.142 3.358,7.5 7.5,7.5 4.142,0 7.5,-3.358 7.5,-7.5 v -51.254 c 0,-9.594 -3.487,-18.632 -9.472,-25.658 l 11.607,-5.803 8.713,8.28 c 6.094,5.792 13.912,8.686 21.733,8.686 7.818,0 15.64,-2.896 21.732,-8.686 l 8.712,-8.279 25.052,12.525 c 5.643,2.821 9.148,8.493 9.148,14.802 v 55.388 c 0,4.142 3.358,7.5 7.5,7.5 4.142,0 7.5,-3.358 7.5,-7.5 v -55.388 c -0.001,-12.026 -6.684,-22.839 -17.441,-28.218 z M 407.291,198.688 c 0,-11.335 11.02,-20.557 24.564,-20.557 13.544,0 24.564,9.222 24.564,20.557 0,0.475 -0.038,0.946 -0.076,1.416 -7.542,-3.158 -15.814,-4.908 -24.488,-4.908 -8.673,0 -16.944,1.75 -24.484,4.907 -0.039,-0.469 -0.08,-0.939 -0.08,-1.415 z m 24.564,11.509 c 26.805,0 48.613,21.808 48.613,48.613 0,5.167 -0.843,10.285 -2.466,15.171 -21.296,-21.635 -58.759,-30.114 -60.565,-30.512 -2.218,-0.489 -4.54,0.055 -6.312,1.478 -1.771,1.424 -2.802,3.574 -2.802,5.846 0,0.049 -0.342,5.252 -5.819,10.729 -2.929,2.929 -2.929,7.678 0,10.606 2.929,2.929 7.678,2.929 10.606,0 4.218,-4.218 6.696,-8.499 8.15,-12.114 12.62,3.749 38.813,13.217 50.568,29.836 -3.336,19.329 -20.08,33.60399 -39.973,33.60399 -20.766,0 -38.11,-15.54999 -40.343,-36.17099 -0.12,-1.105 -0.483,-2.169 -1.065,-3.117 -4.714,-7.677 -7.205,-16.445 -7.205,-25.357 0,-26.804 21.807,-48.612 48.613,-48.612 z M 188.861,99.69999 c 17.115,-16.862999 40.158,-25.776999 66.639,-25.776999 26.481,0 49.524,8.914 66.639,25.776999 17.507,17.25001 27.912,41.96901 30.091,71.48401 5.905,79.991 12.627,124.598 15.244,140.063 0.04,0.23799 -0.04,0.34299 -0.183,0.43499 -7.133,4.617 -22.611,13.229 -46.757,19.69 l -12.368,-5.463 c -3.089,-1.364 -5.085,-4.428 -5.085,-7.805 V 292.319 c 24.102,-15.637 40.081,-42.782 40.081,-73.59 v -14.063 c 0,-9.14 -3.886,-17.762 -10.662,-23.654 -15.069,-13.106 -49.18,-35.977 -108.318,-41.891 -4.111,-0.412 -7.797,2.594 -8.209,6.717 -0.412,4.122 2.595,7.797 6.717,8.209 55.005,5.5 86.242,26.347 99.967,38.284 3.499,3.042 5.505,7.539 5.505,12.335 v 14.063 c 0,40.065 -32.596,72.661 -72.661,72.661 -40.065,0 -72.661,-32.596 -72.661,-72.661 v -6.274 c 0,-2.882 1.598,-5.522 4.274,-7.063 9.377,-5.399 21.743,-15.401 27.406,-32.388 1.31,-3.929 -0.814,-8.177 -4.744,-9.487 -3.928,-1.31 -8.177,0.814 -9.487,4.744 -4.172,12.516 -13.538,20.031 -20.66,24.132 -7.272,4.187 -11.79,11.875 -11.79,20.063 v 6.274 c 0,30.809 15.978,57.953 40.081,73.59 v 25.78499 c 0,3.377 -1.996,6.44 -5.085,7.805 l -12.369,5.463 c -24.156,-6.463 -39.634,-15.08 -46.757,-19.691 -0.142,-0.092 -0.222,-0.197 -0.182,-0.43399 2.616,-15.464 9.338,-60.069 15.244,-140.063 2.178,-29.516 12.583,-54.235 30.09,-71.48501 z M 46.564001,280.842 v -14.016 c 0,-1.164 -0.271,-2.313 -0.792,-3.354 l -4.631,-9.262 c -1.696,-3.394 -2.593,-7.192 -2.593,-10.986 v -0.447 c 0,-17.965 14.616,-32.581 32.581,-32.581 H 135.775 v 31.135 c 0,5.031 -1.189,10.07 -3.44,14.57 l -3.785,7.57 c -0.521,1.042 -0.792,2.19 -0.792,3.354 v 16.032 c 0,11.074 -4.378,21.422 -12.328,29.13599 -7.946,7.711 -18.437,11.778 -29.522999,11.441 -21.694,-0.649 -39.343,-19.75699 -39.343,-42.59199 z m 38.893,57.58699 c 0.577,0.018 1.151,0.026 1.726,0.026 5.687999,0 11.240999,-0.859 16.524999,-2.498 v 3.011 c 0,1.627 0.167,3.103 0.464,4.451 l -17.009999,17.01 -17.09,-17.09 c 0.353,-1.408 0.542,-2.873 0.542,-4.368 v -3.164 c 4.718,1.549 9.694,2.468 14.843,2.622 z m 33.250999,0.542 0.002,-10.333 c 2.519,-1.745 4.921,-3.698 7.168,-5.879 1.512,-1.467 2.92,-3.011 4.24,-4.611 1.205,2.444 3.052,4.579 5.439,6.124 6.012,3.893 17.357,10.36 34.041,16.316 l -21.008,9.279 -23.693,-6.769 c -6.19,-1.768 -6.189,-2.458 -6.189,-4.127 z m 136.792,40.597 c -24.402,0 -46.502,-13.64 -57.523,-35.115 l 10.917,-4.822 c 8.52,-3.763 14.025,-12.212 14.025,-21.526 V 300.109 c 10.077,4.049 21.073,6.282 32.581,6.282 11.508,0 22.503,-2.233 32.581,-6.282 v 17.99599 c 0,9.314 5.505,17.764 14.025,21.526 l 10.915,4.821 c -11.013,21.499 -33.028,35.116 -57.521,35.116 z m 85.904,-38.978 c 16.676,-5.954 28.019,-12.418 34.039,-16.316 5.172,-3.349 7.85,-9.443 6.821,-15.52799 -0.056,-0.333 -0.117,-0.698 -0.177,-1.058 4.218,8.48199 10.525,15.67699 18.22,20.97499 v 15.264 c 0,0.197 -0.109,0.374 -0.285,0.462 l -23.498,11.749 c -0.279,-0.131 -0.547,-0.278 -0.829,-0.403 z m 79.051,17.282 -6.971,-6.624 c 1.176,-2.204 1.822,-4.704 1.822,-7.321 v -7.981 c 5.238,1.625 10.794,2.509 16.548,2.509 5.753,0 11.31,-0.884 16.547,-2.509 l -0.001,7.979 c 0,2.619 0.646,5.119 1.823,7.324 l -6.97,6.623 c -6.391,6.076 -16.405,6.075 -22.798,0 z"
     id="path62"
     inkscape:connector-curvature="0"
     style="fill:#0c0c0c;fill-opacity:1" /><path
     d="M472.436,398.693c-4.142,0-7.5,3.358-7.5,7.5v38.187c0,4.142,3.358,7.5,7.5,7.5s7.5-3.358,7.5-7.5v-38.187  C479.936,402.051,476.578,398.693,472.436,398.693z"
     id="path64"
     style="fill:#0c0c0c;fill-opacity:1" /><g
     id="g66" /><g
     id="g68" /><g
     id="g70" /><g
     id="g72" /><g
     id="g74" /><g
     id="g76" /><g
     id="g78" /><g
     id="g80" /><g
     id="g82" /><g
     id="g84" /><g
     id="g86" /><g
     id="g88" /><g
     id="g90" /><g
     id="g92" /><g
     id="g94" /></svg>