<?xml version="1.0" encoding="UTF-8" standalone="no"?>
<!-- Generator: Adobe Illustrator 16.0.0, SVG Export Plug-In . SVG Version: 6.00 Build 0)  -->

<svg
   xmlns:dc="http://purl.org/dc/elements/1.1/"
   xmlns:cc="http://creativecommons.org/ns#"
   xmlns:rdf="http://www.w3.org/1999/02/22-rdf-syntax-ns#"
   xmlns:svg="http://www.w3.org/2000/svg"
   xmlns="http://www.w3.org/2000/svg"
   xmlns:sodipodi="http://sodipodi.sourceforge.net/DTD/sodipodi-0.dtd"
   xmlns:inkscape="http://www.inkscape.org/namespaces/inkscape"
   version="1.1"
   id="Capa_1"
   x="0px"
   y="0px"
   width="512px"
   height="512px"
   viewBox="0 0 45.699 45.699"
   style="enable-background:new 0 0 45.699 45.699;"
   xml:space="preserve"
   sodipodi:docname="arrows.svg"
   inkscape:version="0.92.1 r"><metadata
     id="metadata45"><rdf:RDF><cc:Work
         rdf:about=""><dc:format>image/svg+xml</dc:format><dc:type
           rdf:resource="http://purl.org/dc/dcmitype/StillImage" /></cc:Work></rdf:RDF></metadata><defs
     id="defs43" /><sodipodi:namedview
     pagecolor="#ffffff"
     bordercolor="#666666"
     borderopacity="1"
     objecttolerance="10"
     gridtolerance="10"
     guidetolerance="10"
     inkscape:pageopacity="0"
     inkscape:pageshadow="2"
     inkscape:window-width="1366"
     inkscape:window-height="720"
     id="namedview41"
     showgrid="false"
     inkscape:zoom="0.4609375"
     inkscape:cx="-450.16949"
     inkscape:cy="256"
     inkscape:window-x="-2"
     inkscape:window-y="309"
     inkscape:window-maximized="1"
     inkscape:current-layer="Capa_1" /><g
     id="g8"
     style="fill:#0095e0;fill-opacity:1"><g
       id="g6"
       style="fill:#0095e0;fill-opacity:1"><path
         d="m 4.233,23.995 c 0.331,0.132 0.701,0.128 1.028,-0.012 l 7.922,-3.389 c 0.499,-0.213 0.82,-0.708 0.814,-1.251 -0.007,-0.543 -0.34,-1.03 -0.844,-1.232 l -2.168,-0.869 c 2.007,-4.724 6.697,-7.943 11.982,-7.943 5.308,0 10.012,3.271 12.005,7.991 0.685,1.62 2.41,2.543 4.138,2.208 l 0.271,-0.052 c 1.102,-0.214 2.049,-0.914 2.575,-1.903 0.528,-0.99 0.582,-2.165 0.148,-3.2 C 38.94,6.806 31.441,1.581 22.97,1.581 14.487,1.581 7.009,6.648 3.816,14.369 L 1.845,13.579 C 1.34,13.376 0.763,13.498 0.384,13.887 c -0.38,0.389 -0.489,0.968 -0.275,1.468 l 3.39,7.921 c 0.14,0.328 0.402,0.587 0.734,0.719 z"
         id="path2"
         inkscape:connector-curvature="0"
         style="fill:#0095e0;fill-opacity:1" /><path
         d="m 45.59,30.343 -3.389,-7.92 c -0.142,-0.328 -0.405,-0.587 -0.736,-0.719 -0.331,-0.132 -0.7,-0.128 -1.027,0.012 l -7.922,3.389 c -0.5,0.213 -0.821,0.707 -0.815,1.25 0.007,0.543 0.34,1.031 0.844,1.232 l 2.169,0.869 c -2.008,4.725 -6.697,7.943 -11.982,7.943 -5.308,0 -10.012,-3.271 -12.005,-7.991 C 10.042,26.788 8.316,25.865 6.59,26.2 l -0.272,0.052 c -1.101,0.214 -2.048,0.914 -2.575,1.903 -0.528,0.99 -0.581,2.165 -0.147,3.199 3.166,7.539 10.664,12.764 19.137,12.764 8.483,0 15.962,-5.066 19.154,-12.788 l 1.972,0.79 c 0.504,0.203 1.081,0.081 1.46,-0.309 0.376,-0.388 0.486,-0.968 0.271,-1.468 z"
         id="path4"
         inkscape:connector-curvature="0"
         style="fill:#0095e0;fill-opacity:1" /></g></g><g
     id="g10" /><g
     id="g12" /><g
     id="g14" /><g
     id="g16" /><g
     id="g18" /><g
     id="g20" /><g
     id="g22" /><g
     id="g24" /><g
     id="g26" /><g
     id="g28" /><g
     id="g30" /><g
     id="g32" /><g
     id="g34" /><g
     id="g36" /><g
     id="g38" /></svg>