<?xml version="1.0" encoding="UTF-8" standalone="no"?>
<!-- Generator: Adobe Illustrator 19.0.0, SVG Export Plug-In . SVG Version: 6.00 Build 0)  -->

<svg
   xmlns:dc="http://purl.org/dc/elements/1.1/"
   xmlns:cc="http://creativecommons.org/ns#"
   xmlns:rdf="http://www.w3.org/1999/02/22-rdf-syntax-ns#"
   xmlns:svg="http://www.w3.org/2000/svg"
   xmlns="http://www.w3.org/2000/svg"
   xmlns:sodipodi="http://sodipodi.sourceforge.net/DTD/sodipodi-0.dtd"
   xmlns:inkscape="http://www.inkscape.org/namespaces/inkscape"
   version="1.1"
   id="Capa_1"
   x="0px"
   y="0px"
   viewBox="0 0 512 512"
   style="enable-background:new 0 0 512 512;"
   xml:space="preserve"
   sodipodi:docname="callendar.svg"
   inkscape:version="0.92.1 r"><metadata
     id="metadata43"><rdf:RDF><cc:Work
         rdf:about=""><dc:format>image/svg+xml</dc:format><dc:type
           rdf:resource="http://purl.org/dc/dcmitype/StillImage" /></cc:Work></rdf:RDF></metadata><defs
     id="defs41" /><sodipodi:namedview
     pagecolor="#ffffff"
     bordercolor="#666666"
     borderopacity="1"
     objecttolerance="10"
     gridtolerance="10"
     guidetolerance="10"
     inkscape:pageopacity="0"
     inkscape:pageshadow="2"
     inkscape:window-width="1366"
     inkscape:window-height="720"
     id="namedview39"
     showgrid="false"
     inkscape:zoom="0.4609375"
     inkscape:cx="-424.13559"
     inkscape:cy="256"
     inkscape:window-x="-2"
     inkscape:window-y="309"
     inkscape:window-maximized="1"
     inkscape:current-layer="Capa_1" /><g
     id="g6"
     style="fill:#ccd1ec;fill-opacity:1"><g
       id="g4"
       style="fill:#ccd1ec;fill-opacity:1"><path
         d="M 469.333,304.232 V 85.333 c 0,-23.531 -19.146,-42.667 -42.667,-42.667 h -53.333 c -5.896,0 -10.667,4.771 -10.667,10.667 v 53.333 c 0,11.76 -9.563,21.333 -21.333,21.333 C 329.563,128 320,118.427 320,106.667 c 0,-8.917 5.729,-16.948 14.25,-19.979 4.25,-1.521 7.083,-5.542 7.083,-10.052 V 10.667 C 341.333,4.771 336.563,0 330.667,0 324.771,0 320,4.771 320,10.667 v 32 H 160 c -5.896,0 -10.667,4.771 -10.667,10.667 v 53.333 c 0,11.76 -9.563,21.333 -21.333,21.333 -11.77,0 -21.333,-9.573 -21.333,-21.333 0,-8.917 5.729,-16.948 14.25,-19.979 C 125.167,85.167 128,81.146 128,76.636 V 10.667 C 128,4.771 123.229,0 117.333,0 111.437,0 106.666,4.771 106.666,10.667 v 32 h -64 C 19.146,42.667 0,61.802 0,85.333 v 341.333 c 0,23.531 19.146,42.667 42.667,42.667 H 304.23 C 325.772,495.376 358.316,512 394.667,512 459.354,512 512,459.365 512,394.667 512,358.313 495.374,325.77 469.333,304.232 Z m -192,90.435 c 0,11.104 1.654,21.811 4.549,32 H 42.667 v -256 h 384 v 111.216 c -10.189,-2.897 -20.896,-4.549 -32,-4.549 -64.688,-10e-4 -117.334,52.635 -117.334,117.333 z m 156.875,39.541 c -2.083,2.083 -4.813,3.125 -7.542,3.125 -2.729,0 -5.458,-1.042 -7.542,-3.125 l -32,-32 c -2,-2 -3.125,-4.708 -3.125,-7.542 v -64 c 0,-5.896 4.771,-10.667 10.667,-10.667 5.896,0 10.667,4.771 10.667,10.667 v 59.583 l 28.875,28.875 c 4.167,4.168 4.167,10.918 0,15.084 z"
         id="path2"
         inkscape:connector-curvature="0"
         style="fill:#ccd1ec;fill-opacity:1" /></g></g><g
     id="g8" /><g
     id="g10" /><g
     id="g12" /><g
     id="g14" /><g
     id="g16" /><g
     id="g18" /><g
     id="g20" /><g
     id="g22" /><g
     id="g24" /><g
     id="g26" /><g
     id="g28" /><g
     id="g30" /><g
     id="g32" /><g
     id="g34" /><g
     id="g36" /></svg>