<?xml version="1.0" encoding="UTF-8" standalone="no"?>
<!-- Generator: Adobe Illustrator 18.0.0, SVG Export Plug-In . SVG Version: 6.00 Build 0)  -->

<svg
   xmlns:dc="http://purl.org/dc/elements/1.1/"
   xmlns:cc="http://creativecommons.org/ns#"
   xmlns:rdf="http://www.w3.org/1999/02/22-rdf-syntax-ns#"
   xmlns:svg="http://www.w3.org/2000/svg"
   xmlns="http://www.w3.org/2000/svg"
   xmlns:sodipodi="http://sodipodi.sourceforge.net/DTD/sodipodi-0.dtd"
   xmlns:inkscape="http://www.inkscape.org/namespaces/inkscape"
   version="1.1"
   id="Capa_1"
   x="0px"
   y="0px"
   viewBox="0 0 512 512"
   style="enable-background:new 0 0 512 512;"
   xml:space="preserve"
   width="512px"
   height="512px"
   sodipodi:docname="info.svg"
   inkscape:version="0.92.1 r"><metadata
     id="metadata39"><rdf:RDF><cc:Work
         rdf:about=""><dc:format>image/svg+xml</dc:format><dc:type
           rdf:resource="http://purl.org/dc/dcmitype/StillImage" /></cc:Work></rdf:RDF></metadata><defs
     id="defs37" /><sodipodi:namedview
     pagecolor="#ffffff"
     bordercolor="#666666"
     borderopacity="1"
     objecttolerance="10"
     gridtolerance="10"
     guidetolerance="10"
     inkscape:pageopacity="0"
     inkscape:pageshadow="2"
     inkscape:window-width="1366"
     inkscape:window-height="720"
     id="namedview35"
     showgrid="false"
     inkscape:zoom="0.4609375"
     inkscape:cx="-450.16949"
     inkscape:cy="256"
     inkscape:window-x="-2"
     inkscape:window-y="309"
     inkscape:window-maximized="1"
     inkscape:current-layer="Capa_1" /><path
     d="M256,0C114.613,0,0,114.617,0,256c0,141.391,114.613,256,256,256s256-114.609,256-256C512,114.617,397.387,0,256,0z   M256,128c17.674,0,32,14.328,32,32c0,17.68-14.326,32-32,32s-32-14.32-32-32C224,142.328,238.326,128,256,128z M304,384h-96  c-8.836,0-16-7.156-16-16c0-8.836,7.164-16,16-16h16v-96h-16c-8.836,0-16-7.156-16-16c0-8.836,7.164-16,16-16h64  c8.836,0,16,7.164,16,16v112h16c8.836,0,16,7.164,16,16C320,376.844,312.836,384,304,384z"
     fill="#89C4F4"
     id="path2"
     style="fill:#0095e0;fill-opacity:1" /><g
     id="g4" /><g
     id="g6" /><g
     id="g8" /><g
     id="g10" /><g
     id="g12" /><g
     id="g14" /><g
     id="g16" /><g
     id="g18" /><g
     id="g20" /><g
     id="g22" /><g
     id="g24" /><g
     id="g26" /><g
     id="g28" /><g
     id="g30" /><g
     id="g32" /></svg>