<?xml version="1.0" encoding="UTF-8" standalone="no"?>
<!-- Generator: Adobe Illustrator 19.0.0, SVG Export Plug-In . SVG Version: 6.00 Build 0)  -->

<svg
   xmlns:dc="http://purl.org/dc/elements/1.1/"
   xmlns:cc="http://creativecommons.org/ns#"
   xmlns:rdf="http://www.w3.org/1999/02/22-rdf-syntax-ns#"
   xmlns:svg="http://www.w3.org/2000/svg"
   xmlns="http://www.w3.org/2000/svg"
   xmlns:sodipodi="http://sodipodi.sourceforge.net/DTD/sodipodi-0.dtd"
   xmlns:inkscape="http://www.inkscape.org/namespaces/inkscape"
   version="1.1"
   id="Layer_1"
   x="0px"
   y="0px"
   viewBox="0 0 511.999 511.999"
   style="enable-background:new 0 0 511.999 511.999;"
   xml:space="preserve"
   width="512px"
   height="512px"
   sodipodi:docname="meetings.svg"
   inkscape:version="0.92.1 r"><metadata
     id="metadata55"><rdf:RDF><cc:Work
         rdf:about=""><dc:format>image/svg+xml</dc:format><dc:type
           rdf:resource="http://purl.org/dc/dcmitype/StillImage" /></cc:Work></rdf:RDF></metadata><defs
     id="defs53" /><sodipodi:namedview
     pagecolor="#ffffff"
     bordercolor="#666666"
     borderopacity="1"
     objecttolerance="10"
     gridtolerance="10"
     guidetolerance="10"
     inkscape:pageopacity="0"
     inkscape:pageshadow="2"
     inkscape:window-width="1366"
     inkscape:window-height="720"
     id="namedview51"
     showgrid="false"
     inkscape:zoom="0.4609375"
     inkscape:cx="256"
     inkscape:cy="256"
     inkscape:window-x="-2"
     inkscape:window-y="309"
     inkscape:window-maximized="1"
     inkscape:current-layer="Layer_1" /><g
     id="g6"
     style="fill:#ccd1ec;fill-opacity:1"><g
       id="g4"
       style="fill:#ccd1ec;fill-opacity:1"><path
         d="M179.361,99.903c-11.41-11.41-16.454-17.005-16.452-30.089c-0.002-13.079,5.044-18.674,16.457-30.089    c9.089-9.087,9.089-23.82,0.002-32.909c-9.087-9.09-23.825-9.087-32.914-0.002c-12.699,12.698-30.095,30.09-30.09,62.999    c-0.005,32.914,17.388,50.305,30.089,63.001c11.411,11.413,16.457,17.011,16.457,30.092c0,12.854,10.42,23.273,23.273,23.273    s23.273-10.418,23.273-23.273C209.454,129.993,192.062,112.601,179.361,99.903z"
         fill="#3498DB"
         id="path2"
         style="fill:#ccd1ec;fill-opacity:1" /></g></g><g
     id="g12"
     style="fill:#ccd1ec;fill-opacity:1"><g
       id="g10"
       style="fill:#ccd1ec;fill-opacity:1"><path
         d="M287.967,99.903c-11.41-11.41-16.454-17.005-16.452-30.089c-0.002-13.079,5.044-18.674,16.457-30.089    c9.089-9.087,9.089-23.82,0.002-32.909c-9.087-9.09-23.825-9.087-32.914-0.002c-12.699,12.698-30.095,30.092-30.09,62.999    c-0.005,32.914,17.388,50.305,30.089,63.001c11.411,11.413,16.457,17.011,16.457,30.092c0,12.854,10.42,23.273,23.273,23.273    s23.273-10.418,23.273-23.273C318.061,129.993,300.668,112.601,287.967,99.903z"
         fill="#3498DB"
         id="path8"
         style="fill:#ccd1ec;fill-opacity:1" /></g></g><g
     id="g18"
     style="fill:#ccd1ec;fill-opacity:1"><g
       id="g16"
       style="fill:#ccd1ec;fill-opacity:1"><path
         d="M381.401,403.393h21.993c0.022,0,0.039-0.003,0.061-0.003c47.023-0.031,85.273-38.298,85.273-85.331    c0-47.053-38.281-85.334-85.334-85.334h-31.03H62.06c-12.853,0-23.273,10.422-23.273,23.273v77.576    c0,52.193,22.528,99.221,58.37,131.879H46.545c-12.853,0-23.273,10.418-23.273,23.273c0,12.851,10.42,23.273,23.273,23.273    h170.667h170.667c12.853,0,23.273-10.422,23.273-23.273c0-12.854-10.42-23.273-23.273-23.273h-50.612    C356.104,448.289,371.257,427.158,381.401,403.393z M395.637,333.575v-54.303h7.758c21.388,0,38.788,17.4,38.788,38.788    s-17.4,38.788-38.788,38.788c-0.011,0-0.02,0-0.031,0h-9.245C395.115,349.229,395.637,341.461,395.637,333.575z"
         fill="#3498DB"
         id="path14"
         style="fill:#ccd1ec;fill-opacity:1" /></g></g><g
     id="g20" /><g
     id="g22" /><g
     id="g24" /><g
     id="g26" /><g
     id="g28" /><g
     id="g30" /><g
     id="g32" /><g
     id="g34" /><g
     id="g36" /><g
     id="g38" /><g
     id="g40" /><g
     id="g42" /><g
     id="g44" /><g
     id="g46" /><g
     id="g48" /></svg>