<?xml version="1.0" encoding="UTF-8" standalone="no"?>
<!-- Generator: Adobe Illustrator 16.0.0, SVG Export Plug-In . SVG Version: 6.00 Build 0)  -->

<svg
   xmlns:dc="http://purl.org/dc/elements/1.1/"
   xmlns:cc="http://creativecommons.org/ns#"
   xmlns:rdf="http://www.w3.org/1999/02/22-rdf-syntax-ns#"
   xmlns:svg="http://www.w3.org/2000/svg"
   xmlns="http://www.w3.org/2000/svg"
   xmlns:sodipodi="http://sodipodi.sourceforge.net/DTD/sodipodi-0.dtd"
   xmlns:inkscape="http://www.inkscape.org/namespaces/inkscape"
   version="1.1"
   id="Capa_1"
   x="0px"
   y="0px"
   width="512px"
   height="512px"
   viewBox="0 0 413.099 413.099"
   style="enable-background:new 0 0 413.099 413.099;"
   xml:space="preserve"
   sodipodi:docname="place.svg"
   inkscape:version="0.92.1 r"><metadata
     id="metadata43"><rdf:RDF><cc:Work
         rdf:about=""><dc:format>image/svg+xml</dc:format><dc:type
           rdf:resource="http://purl.org/dc/dcmitype/StillImage" /></cc:Work></rdf:RDF></metadata><defs
     id="defs41" /><sodipodi:namedview
     pagecolor="#ffffff"
     bordercolor="#666666"
     borderopacity="1"
     objecttolerance="10"
     gridtolerance="10"
     guidetolerance="10"
     inkscape:pageopacity="0"
     inkscape:pageshadow="2"
     inkscape:window-width="1366"
     inkscape:window-height="720"
     id="namedview39"
     showgrid="false"
     inkscape:zoom="0.4609375"
     inkscape:cx="-582.50847"
     inkscape:cy="256"
     inkscape:window-x="-2"
     inkscape:window-y="309"
     inkscape:window-maximized="1"
     inkscape:current-layer="Capa_1" /><g
     id="g6"
     style="fill:#ccd1ec;fill-opacity:1"><g
       id="g4"
       style="fill:#ccd1ec;fill-opacity:1"><path
         d="m 206.549,0 v 0 c -82.6,0 -149.3,66.7 -149.3,149.3 0,28.8 9.2,56.3 22,78.899 l 97.3,168.399 c 6.1,11 18.4,16.5 30,16.5 11.601,0 23.3,-5.5 30,-16.5 l 97.3,-168.299 c 12.9,-22.601 22,-49.601 22,-78.901 C 355.849,66.8 289.149,0 206.549,0 Z m 0,193.4 c -30,0 -54.5,-24.5 -54.5,-54.5 0,-30 24.5,-54.5 54.5,-54.5 30,0 54.5,24.5 54.5,54.5 0,30.1 -24.5,54.5 -54.5,54.5 z"
         id="path2"
         inkscape:connector-curvature="0"
         style="fill:#ccd1ec;fill-opacity:1" /></g></g><g
     id="g8" /><g
     id="g10" /><g
     id="g12" /><g
     id="g14" /><g
     id="g16" /><g
     id="g18" /><g
     id="g20" /><g
     id="g22" /><g
     id="g24" /><g
     id="g26" /><g
     id="g28" /><g
     id="g30" /><g
     id="g32" /><g
     id="g34" /><g
     id="g36" /></svg>