<?xml version="1.0" encoding="iso-8859-1"?>
<!-- Generator: Adobe Illustrator 19.0.0, SVG Export Plug-In . SVG Version: 6.00 Build 0)  -->
<svg version="1.1" id="Layer_1" xmlns="http://www.w3.org/2000/svg" xmlns:xlink="http://www.w3.org/1999/xlink" x="0px" y="0px"
	 viewBox="0 0 491.52 491.52" style="enable-background:new 0 0 491.52 491.52;" xml:space="preserve">
<path style="fill:#E1E6E9;" d="M332.925,0H15.649C7.006,0,0,7.006,0,15.649v214.462c0,8.643,7.006,15.649,15.649,15.649h317.276
	c8.642,0,15.649-7.006,15.649-15.649V15.649C348.574,7.006,341.567,0,332.925,0z"/>
<g>
	<rect x="25.349" y="64.788" style="fill:#64798A;" width="297.882" height="155.622"/>
	<rect x="25.349" y="22.482" style="fill:#64798A;" width="212.992" height="18.017"/>
</g>
<circle style="fill:#FCD462;" cx="258.048" cy="31.493" r="9.006"/>
<circle style="fill:#44C4A1;" cx="286.121" cy="31.493" r="9.006"/>
<circle style="fill:#E56353;" cx="314.214" cy="31.493" r="9.006"/>
<rect x="39.122" y="85.489" style="fill:#FCD462;" width="77.005" height="78.177"/>
<rect x="39.122" y="150.676" style="fill:#F6C358;" width="77.005" height="12.984"/>
<rect x="39.122" y="189.85" style="fill:#E1E6E9;" width="77.005" height="12.232"/>
<rect x="135.793" y="85.489" style="fill:#44C4A1;" width="77.005" height="78.177"/>
<rect x="135.793" y="150.676" style="fill:#3EA69B;" width="77.005" height="12.984"/>
<rect x="135.793" y="189.85" style="fill:#E1E6E9;" width="77.005" height="12.232"/>
<rect x="232.448" y="85.489" style="fill:#27A2DB;" width="77.005" height="78.177"/>
<rect x="232.448" y="150.676" style="fill:#2D93BA;" width="77.005" height="12.984"/>
<rect x="232.448" y="189.85" style="fill:#E1E6E9;" width="77.005" height="12.232"/>
<path style="fill:#64798A;" d="M475.871,245.76H158.595c-8.644,0-15.649,7.006-15.649,15.649v214.462
	c0,8.643,7.005,15.649,15.649,15.649h317.276c8.642,0,15.649-7.006,15.649-15.649V261.409
	C491.52,252.766,484.513,245.76,475.871,245.76z"/>
<g>
	<rect x="168.294" y="310.528" style="fill:#EBF0F3;" width="297.882" height="155.622"/>
	<rect x="168.294" y="268.237" style="fill:#EBF0F3;" width="212.992" height="18.017"/>
</g>
<circle style="fill:#FCD462;" cx="400.947" cy="277.248" r="9.006"/>
<circle style="fill:#44C4A1;" cx="429.056" cy="277.248" r="9.006"/>
<circle style="fill:#E56353;" cx="457.165" cy="277.248" r="9.006"/>
<rect x="182.067" y="331.264" style="fill:#FCD462;" width="269.583" height="78.177"/>
<rect x="182.067" y="401.152" style="fill:#F6C358;" width="269.583" height="8.259"/>
<rect x="182.067" y="435.61" style="fill:#E1E6E9;" width="269.583" height="12.232"/>
<path style="fill:#E56353;" d="M433.522,74.735h-32.116V59.281l-29.96,29.96l29.96,29.959v-15.454h32.116
	c0.482,0,0.878,0.396,0.878,0.88v83.516h29.01v-83.516C463.411,88.144,450.005,74.735,433.522,74.735z"/>
<path style="fill:#44C4A1;" d="M57.998,416.785h32.116v15.454l29.96-29.96l-29.96-29.96v15.454H57.998
	c-0.482,0-0.878-0.396-0.878-0.881v-83.515h-29.01v83.515C28.109,403.376,41.515,416.785,57.998,416.785z"/>
<g>
</g>
<g>
</g>
<g>
</g>
<g>
</g>
<g>
</g>
<g>
</g>
<g>
</g>
<g>
</g>
<g>
</g>
<g>
</g>
<g>
</g>
<g>
</g>
<g>
</g>
<g>
</g>
<g>
</g>
</svg>
